<svg width="16" height="16" fill="none" xmlns="http://www.w3.org/2000/svg"><rect width="16" height="16" rx="4" fill="#EEE"/><path d="M11.848 8.6c-.035-.945-.177-1.891-.177-2.837 0-.77.142-1.576-.142-2.312 0-.07.036-.175.036-.245.07-.385-1.17-.175-1.347.175-.107.105-.177.21-.142.35 0 .036.036.07.036.106a35.573 35.573 0 0 1-.922 3.327c-.142.42-.32.84-.46 1.261-.214-.385-.426-.77-.603-1.19-.497-1.227-.922-2.453-1.525-3.608.071-.526-1.134-.49-1.382 0-.284.595-.248 1.19-.142 1.856.106.735.142 1.436.142 2.172 0 1.4.142 2.802.142 4.203-.142.14-.178.315-.036.49l.213.21c.319.245 1.24.035 1.24-.455 0-1.471-.106-2.907-.141-4.378v-.42c.035.034.035.104.07.14.213.56.461 1.12.78 1.646.32.525.461 1.085.639 1.646-.071.07-.107.175-.071.245 0 .07.035.105.106.14.213.21.673.105.886 0 .106-.035.213-.105.284-.14.106-.07.319-.245.248-.42 0-.035-.036-.07-.036-.105.178-.456.249-.911.355-1.401.106-.49.283-.981.46-1.472.036.21.036.456.072.666.07.91 0 1.786 0 2.697 0 .315.035.56.07.876.036.105.142.63.107.665-.213.21-.142.455.142.49.319.07.744-.035.992-.245.425-.385.213-1.016.142-1.506-.213-.84-.036-1.786-.036-2.627Z" fill="#000"/></svg>